#!OML:ASF E:\emotionWalksFemale\Project 1\Capture day 1\Session 1\Female1.ASF
:FULLY-SPECIFIED
:DEGREES
2095
root 10.1909 15.4723 -31.503 -178.528 -173.999 -178.787
lowerback 8.77027 1.41511 1.21497
upperback -4.56911 2.07377 0.161928
thorax -9.7695 0.929042 -0.863451
lowerneck -6.66764 -1.69781 -2.67895
upperneck 14.8367 -2.34262 2.38102
head 5.63067 -1.12491 1.02814
rclavicle -1.54307e-014 -7.55382e-015
rhumerus -37.5464 1.37637 -80.8925
rradius 37.9075
rwrist 17.3748
rhand 177.393 -234.267
rfingers 7.12502
rthumb -156.909 -262.904
lclavicle -1.54307e-014 -7.55382e-015
lhumerus -45.2907 4.23874 80.3835
lradius 43.5948
lwrist -14.746
lhand -7.50048 -36.9187
lfingers 7.12502
lthumb 18.3894 -7.76793
rfemur -8.48151 -1.34322 17.6389
rtibia 63.7189
rfoot -1.74403 -2.11603
rtoes -15.8655
lfemur -13.2232 -6.44723 -29.1884
ltibia 25.4993
lfoot -16.5857 8.23249
ltoes -25.0506
2096
root 10.1985 15.4743 -31.4744 -178.509 -174.072 -178.749
lowerback 8.60981 1.35632 1.19478
upperback -4.46072 1.98258 0.0996322
thorax -9.55524 0.886924 -0.896489
lowerneck -6.72745 -1.66811 -2.61608
upperneck 14.7615 -2.31916 2.45987
head 5.61686 -1.10417 1.04372
rclavicle -2.22639e-014 -1.19271e-015
rhumerus -37.3106 1.28335 -80.9923
rradius 37.926
rwrist 17.062
rhand 177.74 -234.691
rfingers 7.12502
rthumb -156.576 -263.286
lclavicle -2.22639e-014 -1.19271e-015
lhumerus -44.8689 4.64551 80.1166
lradius 43.3368
lwrist -14.8773
lhand -8.36934 -36.8107
lfingers 7.12502
lthumb 17.5534 -7.58315
rfemur -9.5887 -1.59651 17.5375
rtibia 64.7375
rfoot -1.98908 -2.36516
rtoes -16.6646
lfemur -13.0123 -6.58633 -29.2837
ltibia 25.2458
lfoot -16.6243 8.02098
ltoes -23.2019
2097
root 10.2046 15.4795 -31.4445 -178.685 -174.068 -178.804
lowerback 8.79481 1.34572 1.17855
upperback -4.37874 1.96702 0.0876028
thorax -9.57504 0.879826 -0.901606
lowerneck -6.80853 -1.67994 -2.44327
upperneck 14.8213 -2.34806 2.40372
head 5.64754 -1.11205 0.994928
rclavicle -1.1455e-014 -8.34896e-015
rhumerus -37.3423 1.21707 -81.0188
rradius 38.0312
rwrist 16.7336
rhand 178.301 -235.657
rfingers 7.12502
rthumb -156.038 -264.181
lclavicle -1.1455e-014 -8.34896e-015
lhumerus -44.6754 4.96386 79.8687
lradius 43.2102
lwrist -15.0431
lhand -9.16919 -36.5598
lfingers 7.12502
lthumb 16.7836 -7.26523
rfemur -10.4311 -1.72761 17.5444
rtibia 65.6427
rfoot -2.20409 -2.40567
rtoes -16.4526
lfemur -12.5643 -6.68912 -29.2782
ltibia 25.0694
lfoot -16.8376 7.7843
ltoes -19.7954
2098
root 10.2155 15.4848 -31.4003 -178.816 -173.801 -178.881
lowerback 8.78319 1.39517 1.27371
upperback -4.3417 2.04535 0.0922328
thorax -9.52278 0.912615 -0.962169
lowerneck -6.75682 -1.68149 -2.28252
upperneck 14.9162 -2.34137 2.19186
head 5.66389 -1.11518 0.902739
rclavicle -2.83517e-014 -1.03368e-014
rhumerus -37.4755 1.15126 -80.9092
rradius 38.0935
rwrist 17.0265
rhand 178.83 -235.802
rfingers 7.12502
rthumb -155.531 -264.259
lclavicle -2.83517e-014 -1.03368e-014
lhumerus -44.5509 5.53352 79.5237
lradius 43.1009
lwrist -14.7278
lhand -9.03418 -36.2454
lfingers 7.12502
lthumb 16.9135 -6.96191
rfemur -11.3373 -1.65874 17.5083
rtibia 66.468
rfoot -2.30367 -2.34438
rtoes -15.1964
lfemur -12.1659 -6.70159 -29.3052
ltibia 24.97
lfoot -16.9796 7.91892
ltoes -18.2037
2099
root 10.223 15.4806 -31.3628 -178.929 -173.567 -178.9
lowerback 8.95099 1.39576 1.30167
upperback -4.41657 2.05419 0.0997966
thorax -9.70362 0.91265 -0.977804
lowerneck -6.60889 -1.59553 -2.2962
upperneck 14.9661 -2.22276 2.16567
head 5.65109 -1.06108 0.906126
rclavicle -9.6659e-015 -1.11319e-014
rhumerus -37.6625 1.21317 -80.8774
rradius 38.095
rwrist 17.1891
rhand 178.571 -235.255
rfingers 7.12502
rthumb -155.779 -263.745
lclavicle -9.6659e-015 -1.11319e-014
lhumerus -44.5759 6.36658 79.0315
lradius 43.1752
lwrist -13.7524
lhand -7.56895 -35.5689
lfingers 7.12502
lthumb 18.3236 -6.41197
rfemur -12.3097 -1.59559 17.4438
rtibia 67.2868
rfoot -2.56008 -2.56645
rtoes -15.31
lfemur -11.8522 -6.66514 -29.3997
ltibia 24.8942
lfoot -17.0375 8.25514
ltoes -18.7653
2100
root 10.2214 15.4759 -31.348 -179.002 -173.72 -178.906
lowerback 9.56905 1.29146 1.13718
upperback -4.61059 1.90565 0.11494
thorax -10.2947 0.844017 -0.864816
lowerneck -6.60832 -1.51206 -2.28765
upperneck 15.1212 -2.12907 2.26841
head 5.6981 -1.0076 0.94338
rclavicle 2.57426e-014 -9.54166e-015
rhumerus -37.827 1.14532 -80.8732
rradius 37.9583
rwrist 17.0519
rhand 177.897 -234.874
rfingers 7.12502
rthumb -156.426 -263.449
lclavicle 2.57426e-014 -9.54166e-015
lhumerus -44.7199 7.06745 78.522
lradius 43.2588
lwrist -13.1463
lhand -6.54239 -35.2016
lfingers 7.12502
lthumb 19.3109 -6.14044
rfemur -13.3028 -1.81547 17.5038
rtibia 68.0691
rfoot -3.22573 -3.17368
rtoes -18.3486
lfemur -11.6688 -6.60331 -29.4254
ltibia 24.8434
lfoot -16.9455 8.25403
ltoes -19.7933
2101
root 10.2314 15.4733 -31.3072 -179.179 -173.586 -178.929
lowerback 9.54326 1.26685 1.21509
upperback -4.49153 1.87936 0.0934906
thorax -10.1446 0.82739 -0.92407
lowerneck -6.72592 -1.45917 -2.2212
upperneck 15.2191 -2.06548 2.27067
head 5.74674 -0.971818 0.936727
rclavicle -1.83876e-015 5.1684e-015
rhumerus -37.7398 1.03629 -80.8148
rradius 37.8336
rwrist 17.0454
rhand 177.231 -234.526
rfingers 7.12502
rthumb -157.064 -263.181
lclavicle -1.83876e-015 5.1684e-015
lhumerus -44.5476 7.69331 78.1145
lradius 43.1308
lwrist -13.0391
lhand -6.43394 -35.0404
lfingers 7.12502
lthumb 19.4152 -5.98971
rfemur -14.1543 -1.82465 17.4548
rtibia 68.7579
rfoot -3.87857 -3.38387
rtoes -20.5539
lfemur -11.2939 -6.83584 -29.5311
ltibia 24.8052
lfoot -17.0946 8.61137
ltoes -19.7064
2102
root 10.2324 15.4717 -31.2846 -179.33 -173.752 -178.944
lowerback 9.70427 1.15016 1.14032
upperback -4.41566 1.71815 0.141005
thorax -10.1634 0.756502 -0.80506
lowerneck -6.71628 -1.41486 -2.28894
upperneck 15.224 -1.99718 2.27246
head 5.74569 -0.942394 0.953332
rclavicle 2.80783e-015 7.15625e-015
rhumerus -37.7815 1.18027 -80.7555
rradius 37.9251
rwrist 16.9474
rhand 176.936 -234.379
rfingers 7.12502
rthumb -157.347 -263.069
lclavicle 2.80783e-015 7.15625e-015
lhumerus -44.3768 8.24425 77.8496
lradius 43.022
lwrist -12.8882
lhand -6.76683 -34.7091
lfingers 7.12502
lthumb 19.0951 -5.6265
rfemur -14.9597 -1.9695 17.5279
rtibia 69.3552
rfoot -4.33963 -3.48539
rtoes -19.9159
lfemur -10.9914 -6.938 -29.547
ltibia 24.7371
lfoot -17.2497 8.37409
ltoes -18.6517
2103
root 10.2327 15.4685 -31.2584 -179.471 -173.925 -178.859
lowerback 9.70615 1.05573 1.01719
upperback -4.32749 1.57079 0.117109
thorax -10.0722 0.693954 -0.733428
lowerneck -6.51849 -1.39452 -2.29157
upperneck 15.0482 -1.97039 2.27534
head 5.65603 -0.931009 0.957777
rclavicle 2.70844e-014 1.27222e-014
rhumerus -37.8413 1.22645 -80.7391
rradius 37.9487
rwrist 16.7193
rhand 176.636 -234.008
rfingers 7.12502
rthumb -157.636 -262.734
lclavicle 2.70844e-014 1.27222e-014
lhumerus -44.2497 8.65113 77.5934
lradius 43.0086
lwrist -12.7099
lhand -7.29279 -34.5528
lfingers 7.12502
lthumb 18.5892 -5.42104
rfemur -15.6944 -2.09386 17.4917
rtibia 69.8571
rfoot -4.82378 -3.58652
rtoes -19.45
lfemur -10.6788 -6.90588 -29.6805
ltibia 24.6392
lfoot -17.2824 8.18187
ltoes -18.3533
2104
root 10.2374 15.4639 -31.2261 -179.592 -173.926 -178.706
lowerback 9.61769 1.00231 0.89965
upperback -4.26104 1.47411 0.0443412
thorax -9.94875 0.653639 -0.724862
lowerneck -6.34409 -1.35113 -2.15523
upperneck 14.9428 -1.91042 2.14851
head 5.58923 -0.904549 0.900671
rclavicle -3.69243e-014 -7.95139e-016
rhumerus -37.8559 1.21459 -80.7493
rradius 37.8956
rwrist 16.7807
rhand 176.572 -233.677
rfingers 7.12502
rthumb -157.697 -262.41
lclavicle -3.69243e-014 -7.95139e-016
lhumerus -44.154 9.00136 77.2838
lradius 42.9052
lwrist -12.497
lhand -7.82658 -34.5648
lfingers 7.12502
lthumb 18.0757 -5.38473
rfemur -16.5306 -2.12914 17.3269
rtibia 70.348
rfoot -5.17464 -3.64727
rtoes -19.614
lfemur -10.3995 -6.87114 -29.9421
ltibia 24.5837
lfoot -17.1949 8.40217
ltoes -19.7763
2105
root 10.2406 15.4591 -31.1971 -179.713 -173.86 -178.671
lowerback 9.50734 0.929757 0.804619
upperback -4.14736 1.36482 0.0817705
thorax -9.76289 0.610399 -0.608085
lowerneck -6.23967 -1.26215 -2.24701
upperneck 14.9078 -1.77966 2.14765
head 5.55821 -0.846763 0.924974
rclavicle -5.71506e-016 -3.57812e-015
rhumerus -37.7207 1.41986 -80.7506
rradius 37.8785
rwrist 16.9323
rhand 177.498 -234.365
rfingers 7.12502
rthumb -156.808 -262.988
lclavicle -5.71506e-016 -3.57812e-015
lhumerus -44.0147 9.56066 76.989
lradius 42.6476
lwrist -12.4441
lhand -8.34378 -34.6133
lfingers 7.12502
lthumb 17.578 -5.3879
rfemur -17.4177 -2.01276 17.3202
rtibia 70.8152
rfoot -5.57457 -3.78599
rtoes -18.3555
lfemur -10.1436 -7.02413 -30.0834
ltibia 24.5975
lfoot -17.0449 8.86995
ltoes -22.0471
